<?xml version="1.0" standalone="no"?>
<!DOCTYPE svg PUBLIC "-//W3C//DTD SVG 20010904//EN"
 "http://www.w3.org/TR/2001/REC-SVG-20010904/DTD/svg10.dtd">
<svg version="1.0" xmlns="http://www.w3.org/2000/svg"
 width="717.000000pt" height="717.000000pt" viewBox="0 0 717.000000 717.000000"
 preserveAspectRatio="xMidYMid meet">
<metadata>
Created by potrace 1.11, written by Peter Selinger 2001-2013
</metadata>
<g transform="translate(0.000000,717.000000) scale(0.100000,-0.100000)"
fill="#000000" stroke="none">
<path d="M2930 6633 c-154 -15 -492 -93 -535 -123 -5 -4 -22 -10 -38 -14 -45
-11 -279 -121 -395 -187 -103 -58 -355 -235 -421 -297 -10 -9 -40 -35 -66 -57
-60 -50 -276 -265 -332 -331 -23 -27 -51 -60 -63 -74 -25 -29 -37 -45 -121
-155 -78 -102 -195 -280 -244 -370 -21 -38 -50 -90 -65 -115 -41 -70 -137
-275 -171 -365 -13 -33 -24 -62 -24 -65 -1 -3 -6 -16 -12 -30 -27 -67 -52
-140 -48 -140 3 0 -1 -12 -9 -27 -11 -22 -71 -243 -92 -338 -83 -378 -89 -872
-14 -1210 21 -96 65 -257 79 -290 5 -11 15 -36 22 -55 16 -45 123 -264 152
-311 162 -262 397 -476 667 -606 155 -75 241 -101 520 -158 69 -14 166 -34
215 -45 253 -56 556 -47 855 26 176 43 287 84 476 175 44 21 85 39 90 39 5 0
22 -29 39 -63 66 -138 170 -281 296 -407 82 -83 197 -180 213 -180 4 0 16 -8
27 -18 10 -11 32 -25 47 -32 15 -8 34 -20 42 -26 22 -18 229 -123 248 -126 10
-2 19 -5 22 -8 13 -13 179 -63 286 -86 149 -31 381 -42 545 -25 169 18 390 74
534 136 47 21 197 94 230 113 82 47 224 147 285 198 29 25 255 251 275 275 48
58 115 150 166 229 56 87 184 339 191 375 1 11 6 22 9 25 13 12 72 216 94 326
47 232 56 434 30 656 -13 116 -28 195 -49 273 -1 6 -8 30 -15 55 -31 113 -140
365 -165 382 -6 4 -8 8 -3 8 11 0 -35 70 -116 179 -69 92 -202 232 -286 301
-49 39 -178 130 -187 130 -3 0 -24 13 -47 28 -82 55 -322 162 -395 177 -10 2
-47 10 -83 19 -113 27 -204 36 -363 36 -86 0 -156 2 -156 4 0 40 -25 284 -35
351 -25 152 -77 352 -117 445 -6 14 -15 36 -21 50 -5 14 -16 39 -23 55 -8 17
-21 46 -29 65 -40 90 -123 224 -197 316 -84 106 -85 108 -168 193 -41 43 -88
94 -105 115 -30 36 -157 167 -212 217 -33 30 -161 123 -183 132 -8 4 -42 23
-75 42 -33 19 -71 40 -85 45 -14 6 -34 14 -45 19 -11 5 -31 13 -45 19 -24 10
-73 26 -150 50 -49 15 -170 39 -263 51 -73 10 -306 12 -387 4z"/>
</g>
</svg>
